# xmcd
# Track frame offsets:
# 150
# 5167
# 24930
# 47490
# 67885
# 83545
# 99710
# 121325
# 141577
# 151240
# 173352
# 192700
# 210022
# 215882
# 233872
# 254622
# 275277
#
# Disc length: 3861 seconds
# Revision: 0
# Processed by: cddbd v1.4PL0 Copyright (c) Steve Scherf et al.
# Submitted via: VisiTrax 2.9.5.181 - For more info visit www.synapsa.com
#
DISCID=e70f1311
DTITLE=Missy Elliot - Da Real World
DYEAR=1998
DGENRE=Hip-Hop
TTITLE0=Mysterious
TTITLE1=Beat Biters
TTITLE2=Busa rhyme
TTITLE3=All n My Grill
TTITLE4=Dangerous Mouths
TTITLE5=Hot Boyz
TTITLE6=you Don't Know
TTITLE7=Mr. DJ
TTITLE8=Checkin' for you
TTITLE9=Stickin Chickens
TTITLE10=Smooth Chick
TTITLE11=We did it
TTITLE12=Throw your hands up
TTITLE13=She's a Bithc
TTITLE14=u Can't Resist
TTITLE15=Crazy Feelings
TTITLE16=Religious blessings
EXTD=
EXTT0=
EXTT1=
EXTT2=
EXTT3=
EXTT4=
EXTT5=
EXTT6=
EXTT7=
EXTT8=
EXTT9=
EXTT10=
EXTT11=
EXTT12=
EXTT13=
EXTT14=
EXTT15=
EXTT16=
PLAYORDER=
